<?xml version="1.0" encoding="iso-8859-1"?>
<!-- Generator: Adobe Illustrator 26.0.1, SVG Export Plug-In . SVG Version: 6.00 Build 0)  -->
<svg version="1.1" id="Layer_1" xmlns="http://www.w3.org/2000/svg"
	xmlns:xlink="http://www.w3.org/1999/xlink" x="0px" y="0px"
	viewBox="90 395 210 210" style="enable-background:new 0 0 1000 1000;" xml:space="preserve">
<g>
	<g>
		<path d="M275.131,559.033c12.429-16.667,19.874-37.266,19.874-59.655c0-55.229-44.77-100.006-100.006-100.006
			c-55.229,0-99.999,44.77-99.999,99.999s44.77,100.006,100.006,100.006c22.304,0,42.833-7.394,59.467-19.738l-0.298,0.356
			l20.393,21.034l21.831-21.034L275.131,559.033z"/>
		<g>
			<circle style="fill:#FFFFFF;" cx="195.006" cy="499.371" r="92.392"/>
			<path d="M195.006,424.968c-41.096,0-74.41,33.314-74.41,74.41s33.314,74.41,74.41,74.41s74.41-33.314,74.41-74.41
				S236.096,424.968,195.006,424.968z M195.006,528.642c-16.168,0-29.27-13.103-29.27-29.27c0-16.168,13.103-29.27,29.27-29.27
				s29.27,13.103,29.27,29.27C224.276,515.539,211.167,528.642,195.006,528.642z"/>
			<circle cx="195.006" cy="499.371" r="6.35"/>
			
				<linearGradient id="SVGID_1_" gradientUnits="userSpaceOnUse" x1="126.279" y1="2390.2368" x2="263.7198" y2="2390.2368" gradientTransform="matrix(1 0 0 1 0 -1926)">
				<stop  offset="0" style="stop-color:#000000"/>
				<stop  offset="0.5108" style="stop-color:#DFDFDF"/>
				<stop  offset="0.8763" style="stop-color:#000000"/>
			</linearGradient>
			<path style="fill:url(#SVGID_1_);" d="M159.424,497.862c0.791-18.967,16.414-34.104,35.575-34.104s34.785,15.137,35.575,34.104
				h33.145c-0.804-37.279-31.253-67.249-68.727-67.249s-67.91,29.977-68.714,67.249H159.424z"/>
			
				<linearGradient id="SVGID_00000050631213026670630310000008495347995017964201_" gradientUnits="userSpaceOnUse" x1="192.8597" y1="2362.0647" x2="246.7506" y2="2409.0327" gradientTransform="matrix(1 0 0 1 0 -1926)">
				<stop  offset="0.0029" style="stop-color:#B5B5B5;stop-opacity:0"/>
				<stop  offset="0.1244" style="stop-color:#969696;stop-opacity:0.1632"/>
				<stop  offset="0.5553" style="stop-color:#2B2B2B;stop-opacity:0.7421"/>
				<stop  offset="0.7473" style="stop-color:#000000"/>
			</linearGradient>
			<path style="fill:url(#SVGID_00000050631213026670630310000008495347995017964201_);" d="M195.006,430.619v33.145
				c19.168,0.24,35.135,15.617,35.595,34.733h33.145C263.279,461.081,232.48,430.865,195.006,430.619z"/>
			
				<linearGradient id="SVGID_00000162344693621273180450000006113918966906372281_" gradientUnits="userSpaceOnUse" x1="-478.7969" y1="2362.072" x2="-424.9125" y2="2409.0344" gradientTransform="matrix(-1 0 0 1 -281.6408 -1926)">
				<stop  offset="0.0029" style="stop-color:#B5B5B5;stop-opacity:0"/>
				<stop  offset="0.1244" style="stop-color:#969696;stop-opacity:0.1632"/>
				<stop  offset="0.5553" style="stop-color:#2B2B2B;stop-opacity:0.7421"/>
				<stop  offset="0.7473" style="stop-color:#000000"/>
			</linearGradient>
			<path style="fill:url(#SVGID_00000162344693621273180450000006113918966906372281_);" d="M195.006,430.619v33.145
				c-19.168,0.24-35.115,15.617-35.575,34.733h-33.152C126.746,461.081,157.532,430.865,195.006,430.619z"/>
			
				<linearGradient id="SVGID_00000110465873515478299260000006597278730029554344_" gradientUnits="userSpaceOnUse" x1="203.6124" y1="2512.5176" x2="254.0371" y2="2478.1699" gradientTransform="matrix(1 0 0 1 0 -1926)">
				<stop  offset="0.0029" style="stop-color:#B5B5B5;stop-opacity:0"/>
				<stop  offset="0.0486" style="stop-color:#A8A8A8;stop-opacity:0.0514"/>
				<stop  offset="0.2682" style="stop-color:#6C6C6C;stop-opacity:0.2982"/>
				<stop  offset="0.4258" style="stop-color:#3E3E3E;stop-opacity:0.5252"/>
				<stop  offset="0.5591" style="stop-color:#1C1C1C;stop-opacity:0.725"/>
				<stop  offset="0.7208" style="stop-color:#070707;stop-opacity:0.8901"/>
				<stop  offset="0.8679" style="stop-color:#000000"/>
			</linearGradient>
			<path style="fill:url(#SVGID_00000110465873515478299260000006597278730029554344_);" d="M244.001,555.346
				c-13.09,11.47-30.229,18.436-49.002,18.436c-0.078,0-0.149-0.006-0.22-0.006v17.982c0.078,0,0.149,0.007,0.22,0.007
				c23.283,0,44.544-8.631,60.789-22.849C251.9,564.359,247.844,559.934,244.001,555.346z"/>
			<path style="fill:#FFFFFF;" d="M286.335,580.171l-49.838-49.948c-1.471-1.951-3.797-3.214-6.422-3.214
				c-4.445,0-8.048,3.603-8.048,8.048c0,2.164,0.862,4.128,2.255,5.579l0,0l0,0c0.091,0.097,0.194,0.194,0.292,0.285l50.79,49.656
				L286.335,580.171z"/>
		</g>
	</g>
</g>
</svg>